<?xml version="1.0" encoding="utf-8"?>
<!-- Generator: Adobe Illustrator 21.0.2, SVG Export Plug-In . SVG Version: 6.00 Build 0)  -->
<svg version="1.1" id="Layer_1" xmlns="http://www.w3.org/2000/svg" xmlns:xlink="http://www.w3.org/1999/xlink" x="0px" y="0px"
	 viewBox="0 0 792 400" style="enable-background:new 0 0 792 400;" xml:space="preserve">
<style type="text/css">
	.st0{fill:#B67B56;}
</style>
<path class="st0" d="M400.8,133.7c-8.4-8.4-18.7-12.6-30.6-12.6c-11.9,0-22.2,4.3-30.6,12.6c-8.1,8-12.4,17.6-12.7,28.5
	c-3.7-0.9-7-2.7-9.9-5.5c-4.2-4.1-6.2-9.2-6.2-15.6V39.8c0-1.3-1.1-2.4-2.4-2.4h-5.5c-1.3,0-2.4,1.1-2.4,2.4v101.3
	c0,9.1,3.1,16.7,9.3,22.6c5.1,4.8,11.1,7.7,17.9,8.5c0.1,0.3,0.1,0.5,0.2,0.7c1.7,7.7,5.5,14.8,11.5,21c8.3,8.6,18.4,13,30.1,13h1.5
	c11.7,0,21.9-4.4,30.1-12.9c8.2-8.6,12.3-18.7,12.3-30.3C413.4,152.2,409.2,142.1,400.8,133.7z M403.1,164.1
	c0,9.1-3.1,16.7-9.6,23.4c-6.4,6.6-14,9.8-23.1,9.8c-9.1,0-16.7-3.2-23.3-9.9c-6.6-6.6-9.9-14.2-9.9-23.2c0-9,3.2-16.7,9.9-23.4
	c6.6-6.7,14.2-10,23.2-10c9,0,16.6,3.2,23.1,9.9C399.8,147.2,403.1,155.1,403.1,164.1z"/>
<path class="st0" d="M286.5,168.5V91.3c0-1.3-1.1-2.4-2.4-2.4h-5.5c-1.3,0-2.4,1.1-2.4,2.4v45c0,7.3-2.7,13.5-8.3,18.9
	c-5.6,5.4-11.8,8.1-19.2,8.1c-7.3,0-13.3-2.6-18.4-8c-5.1-5.4-7.7-11.6-7.7-18.9v-45c0-1.3-1.1-2.4-2.4-2.4h-5.5
	c-1.3,0-2.4,1.1-2.4,2.4v45c0,10.1,3.5,18.8,10.5,25.9c7,7.1,15.7,10.7,25.9,10.7c11.8,0,21-3.9,27.4-11.7v7.4
	c0,1.3,1.1,2.4,2.4,2.4h5.5C285.4,171,286.5,169.8,286.5,168.5z"/>
<path class="st0" d="M159.3,86.9c-11.9,0-22.2,4.3-30.6,12.6c-8.4,8.4-12.7,18.5-12.7,30c0,11.5,4.2,21.6,12.5,30.3
	c8.3,8.6,18.5,13,30.1,13h1.5c11.7,0,21.9-4.3,30.1-12.9c8.2-8.6,12.4-18.7,12.4-30.3c0-11.5-4.3-21.6-12.6-30
	C181.5,91.2,171.2,86.9,159.3,86.9z M192.2,130c0,9.1-3.1,16.7-9.6,23.4c-6.4,6.6-14,9.8-23.1,9.8c-9.1,0-16.7-3.2-23.3-9.9
	c-6.6-6.6-9.8-14.2-9.8-23.2c0-9,3.2-16.7,9.9-23.4c6.6-6.7,14.2-10,23.2-10c9,0,16.6,3.2,23.1,9.9C189,113.2,192.2,120.9,192.2,130
	z"/>
<path class="st0" d="M94.5,123c-3.7-2.3-7.4-4.5-11-6.5c-3.4-1.9-6.4-4-8.8-6.2c-2.1-1.9-3.1-3.9-3.1-6.1c0-2.2,0.8-3.9,2.6-5.4
	c1.9-1.6,3.9-2.3,6.3-2.3c4.8,0,8.7,2.3,11.9,7.2c0.6,0.9,1.7,1.3,2.7,1c1-0.3,1.7-1.2,1.7-2.3v-7c0-0.6-0.2-1.2-0.6-1.6
	c-4.1-4.5-9.2-6.8-15-6.8c-5.7,0-10.5,1.6-14.2,4.8c-3.8,3.3-5.7,7.4-5.7,12.1c0,4.6,1.5,8.8,4.4,12.2c2.7,3.2,6.1,6,9.9,8.2
	c3.6,2.1,7.2,4.3,10.9,6.4c3.4,2,6.3,4.5,8.7,7.4c2.2,2.7,3.3,5.9,3.3,9.9c0,3.8-1.7,7.3-5.3,10.5c-3.6,3.3-8,4.9-13.4,4.9
	c-8.6,0-14.8-4.3-18.7-13c-0.5-1.1-1.6-1.6-2.7-1.4c-1.1,0.2-1.9,1.2-1.9,2.4v8.2c0,0.4,0.1,0.8,0.3,1.2c2.1,3.7,5.3,6.8,9.7,9
	c4.3,2.2,9,3.3,13.9,3.3c7.8,0,14.6-2.6,20.1-7.8c5.6-5.2,8.4-11.6,8.4-19c0-5.1-1.4-9.7-4.3-13.6C101.8,128.6,98.4,125.5,94.5,123z
	"/>
<path class="st0" d="M365.4,251.4h-5.5c-1.3,0-2.4,1.1-2.4,2.4v10.6c-2.7-3.4-6.2-6.3-10.3-8.7c-7-4.1-14.5-6.2-22.3-6.2
	c-11.8,0-22.1,4.3-30.5,12.6c-8.5,8.4-12.7,18.6-12.7,30.3c0,11.7,4.3,21.9,12.7,30.3c8.4,8.4,18.7,12.6,30.5,12.6
	c7.7,0,15.1-2,21.8-6c4.2-2.5,7.8-5.6,10.8-9.2v10.9c0,1.3,1.1,2.4,2.4,2.4h5.5c1.3,0,2.4-1.1,2.4-2.4v-77.2
	C367.8,252.5,366.7,251.4,365.4,251.4z M353.2,275.7C353.2,275.7,353.2,275.7,353.2,275.7c3,5,4.6,10.7,4.6,16.9
	c0,6.2-1.5,11.8-4.5,16.8c-1.4,2.3-3.1,4.5-5.1,6.5c-6.4,6.6-14,9.8-23.1,9.8c-9.1,0-16.7-3.2-23.3-9.8c-6.6-6.6-9.8-14.2-9.8-23.3
	c0-9,3.2-16.7,9.8-23.4c6.6-6.7,14.2-10,23.2-10c9,0,16.5,3.2,23.1,9.9C350.1,271.2,351.8,273.4,353.2,275.7z"/>
<path class="st0" d="M413.6,324.9c-6,0-11-2-15.2-6.2c-4.2-4.1-6.2-9.2-6.2-15.6v-41.8h21.2c1.3,0,2.4-1.1,2.4-2.4V254
	c0-1.3-1.1-2.4-2.4-2.4h-21.2v-28.8c0-1.3-1.1-2.4-2.4-2.4h-5.5c-1.3,0-2.4,1.1-2.4,2.4v80.3c0,9.1,3.1,16.8,9.3,22.6
	c6.2,5.9,13.7,8.8,22.4,8.8c1.3,0,2.4-1.1,2.4-2.4v-4.8C416,326,414.9,324.9,413.6,324.9z"/>
<path class="st0" d="M488.5,260.2c-6.2-6.3-13.8-9.8-22.5-10.5c-1.1-0.1-2.3-0.2-3.5-0.2c-11.8,0-20.9,3.8-27.2,11.2v-58.2v-27h21.6
	c1.3,0,2.4-1.1,2.4-2.4v-4.8c0-1.3-1.1-2.4-2.4-2.4h-21.6v-42.7c0-6.4,2-11.5,6.2-15.6c4.2-4.1,9.2-6.2,15.2-6.2
	c1.3,0,2.4-1.1,2.4-2.4v-4.8c0-1.3-1.1-2.4-2.4-2.4c-8.7,0-16.3,3-22.5,8.8c-6.2,5.9-9.3,13.5-9.3,22.6v79.4c0,0,0,0,0,0
	c0,0,0,0,0,0v128.5c0,1.3,1.1,2.4,2.4,2.4h5.5c1.3,0,2.4-1.1,2.4-2.4v-45c0-7.3,2.7-13.5,8.2-18.9c5.5-5.4,11.7-8.1,19.1-8.1
	c0.9,0,1.7,0,2.7,0.1c6.1,0.6,11.3,3.1,15.8,7.8c5.2,5.3,7.7,11.6,7.7,19v45c0,1.3,1.1,2.4,2.4,2.4h5.5c1.3,0,2.4-1.1,2.4-2.4v-45
	C499.1,276,495.5,267.3,488.5,260.2z"/>
<path class="st0" d="M584.4,308.7c-1-0.3-2.1,0.1-2.7,1c-3.3,4.9-7.6,8.9-12.7,11.9c-5,2.9-10.8,4.4-17.2,4.4
	c-5.6,0-11.6-2.3-17.7-6.7l51.9-51.2c0.9-0.9,1-2.4,0.1-3.4c-8.9-9.9-19.7-14.9-32.2-14.9c-12.4,0-23,4.3-31.4,12.6
	c-8.4,8.4-12.7,18.5-12.7,30c0,11.5,4.3,21.7,12.8,30.3c8.5,8.6,18.6,13,30.1,13h1.5c12.2,0,22.8-4.8,31.3-14.2
	c0.4-0.4,0.6-1,0.6-1.6V311C586.1,309.9,585.4,309,584.4,308.7z M526.9,312.2c-4.6-6-6.8-12.7-6.8-20.4c0-8.5,3.2-15.9,9.8-22.6
	c6.6-6.6,14-9.8,22.5-9.8c7.7,0,14.5,2.3,20.7,7L526.9,312.2z"/>
<path class="st0" d="M661.8,260.2c-7-7.1-15.7-10.7-25.9-10.7c-11.8,0-21,3.9-27.4,11.7v-7.4c0-1.3-1.1-2.4-2.4-2.4h-5.5
	c-1.3,0-2.4,1.1-2.4,2.4v77.2c0,1.3,1.1,2.4,2.4,2.4h5.5c1.3,0,2.4-1.1,2.4-2.4v-45c0-5,1.3-9.4,3.9-13.5c1.2-1.9,2.7-3.7,4.4-5.3
	c5.6-5.4,11.9-8.1,19.2-8.1c7.3,0,13.3,2.6,18.4,8c5.2,5.4,7.7,11.6,7.7,18.9v45c0,1.3,1.1,2.4,2.4,2.4h5.5c1.3,0,2.4-1.1,2.4-2.4
	v-45C672.3,276,668.7,267.3,661.8,260.2z"/>
<path class="st0" d="M731.3,295c-2.7-3.8-6.1-6.9-10-9.4c-3.6-2.2-7.3-4.4-11-6.5c-3.4-1.9-6.3-4-8.8-6.3c-2.1-1.9-3.1-3.9-3.1-6.1
	c0-2.2,0.8-3.9,2.6-5.4c1.9-1.6,3.9-2.3,6.3-2.3c4.8,0,8.7,2.3,11.9,7.1c0.6,0.9,1.7,1.3,2.7,1c1-0.3,1.7-1.3,1.7-2.3v-7
	c0-0.6-0.2-1.2-0.6-1.6c-4.1-4.5-9.2-6.8-15-6.8c-5.7,0-10.5,1.6-14.2,4.8c-3.8,3.3-5.7,7.3-5.7,12.1c0,4.6,1.5,8.8,4.4,12.2
	c2.7,3.2,6,6,9.9,8.3c3.6,2.1,7.2,4.2,10.9,6.4c3.4,2,6.3,4.5,8.7,7.4c2.2,2.7,3.3,5.9,3.3,9.9c0,3.8-1.7,7.2-5.3,10.5
	c-3.6,3.3-8,4.9-13.4,4.9c-8.6,0-14.8-4.2-18.7-13c-0.5-1-1.6-1.6-2.7-1.4c-1.1,0.2-1.9,1.2-1.9,2.4v8.2c0,0.4,0.1,0.8,0.3,1.2
	c2,3.7,5.3,6.7,9.7,9c4.3,2.2,8.9,3.3,13.9,3.3c7.8,0,14.6-2.6,20.1-7.8c5.6-5.2,8.4-11.6,8.4-19C735.6,303.5,734.1,298.9,731.3,295
	z"/>
</svg>
